<?xml version="1.0" standalone="no"?>
<!DOCTYPE svg PUBLIC "-//W3C//DTD SVG 20010904//EN"
 "http://www.w3.org/TR/2001/REC-SVG-20010904/DTD/svg10.dtd">
<svg version="1.0" xmlns="http://www.w3.org/2000/svg"
 width="750.000000pt" height="1000.000000pt" viewBox="0 0 750.000000 1000.000000"
 preserveAspectRatio="xMidYMid meet">
<metadata>
Created by potrace 1.16, written by Peter Selinger 2001-2019
</metadata>
<g transform="translate(0.000000,1000.000000) scale(0.100000,-0.100000)"
fill="#000000" stroke="none">
<path d="M3756 9929 c-190 -20 -348 -68 -482 -146 -105 -61 -234 -191 -293
-297 -55 -97 -114 -269 -136 -396 -25 -144 -30 -452 -11 -745 12 -191 13 -275
5 -355 -22 -224 -73 -409 -158 -581 -66 -130 -107 -193 -216 -329 -407 -509
-673 -987 -779 -1402 -47 -182 -58 -277 -55 -455 l3 -153 -36 -37 c-20 -21
-69 -83 -110 -138 -41 -55 -93 -113 -115 -128 -22 -15 -84 -43 -137 -62 -186
-67 -272 -129 -323 -234 -25 -50 -28 -67 -28 -161 0 -58 8 -167 18 -242 20
-149 22 -131 -34 -328 -15 -52 -22 -104 -22 -170 -1 -109 12 -147 70 -211 73
-81 179 -114 478 -149 314 -37 446 -70 608 -151 101 -51 185 -83 302 -116 121
-33 326 -42 435 -19 149 31 269 112 345 231 33 51 38 55 74 55 21 0 123 15
227 34 357 64 467 68 749 26 77 -12 202 -24 278 -28 l138 -7 23 -57 c52 -127
168 -249 288 -302 134 -59 306 -62 466 -7 172 58 269 125 457 316 177 179 239
223 512 359 224 113 294 157 350 220 121 137 86 296 -115 530 -63 73 -78 107
-122 283 -61 240 -109 323 -223 383 l-45 24 14 40 c8 21 24 85 36 140 28 135
30 394 4 541 -78 430 -311 879 -706 1355 -230 277 -360 474 -429 647 -69 172
-72 199 -81 673 -4 234 -13 463 -19 510 -70 509 -247 809 -564 955 -171 79
-401 109 -641 84z m451 -1005 c92 -44 179 -160 214 -285 20 -74 16 -224 -8
-304 -25 -80 -78 -169 -96 -162 -7 3 -43 17 -82 32 -38 16 -72 29 -74 31 -1 1
8 18 22 36 55 72 62 208 15 310 -85 184 -269 94 -285 -139 l-6 -81 -41 18
c-22 10 -62 24 -88 30 l-48 12 0 74 c0 97 15 164 56 250 34 73 104 148 167
180 73 39 170 38 254 -2z m-898 -72 c84 -51 145 -171 163 -324 9 -69 8 -90 -2
-103 -7 -8 -16 -15 -20 -15 -7 0 -86 -34 -111 -47 -4 -2 -8 29 -11 69 -10 155
-106 246 -178 168 -67 -72 -65 -256 5 -338 14 -17 25 -32 25 -34 0 -3 -20 -19
-44 -36 l-44 -32 -28 33 c-65 77 -111 246 -99 367 26 255 184 389 344 292z
m456 -496 c41 -13 119 -49 172 -79 54 -31 138 -70 187 -87 195 -69 264 -110
296 -174 23 -49 24 -76 6 -129 -39 -108 -154 -203 -314 -258 -30 -10 -98 -46
-151 -78 -186 -115 -290 -146 -423 -123 -89 15 -145 46 -239 129 -41 36 -111
90 -156 119 -125 83 -183 161 -183 244 0 63 25 95 140 179 58 42 134 102 169
134 118 107 209 146 338 147 60 0 103 -7 158 -24z m704 -687 c98 -346 311
-879 481 -1205 148 -283 247 -538 305 -785 l27 -116 57 -7 c31 -3 65 -7 75 -9
16 -2 23 9 37 55 103 332 -30 775 -329 1101 -40 44 -71 84 -69 90 8 25 28 14
89 -51 251 -266 418 -610 447 -920 8 -89 2 -230 -13 -299 -6 -27 -3 -30 71
-67 123 -60 193 -106 257 -166 85 -81 114 -149 101 -236 -6 -40 -9 -44 -34
-44 -27 0 -28 1 -27 53 1 105 -75 185 -264 278 -118 58 -201 86 -287 99 -99
14 -191 -9 -235 -57 -23 -25 -55 -99 -63 -146 -6 -33 -14 -41 -67 -69 -113
-60 -197 -187 -238 -359 -23 -97 -46 -289 -55 -464 -7 -134 -20 -207 -66 -372
l-31 -112 -81 -52 c-98 -63 -275 -148 -381 -183 -159 -52 -268 -70 -441 -70
-230 0 -367 32 -562 133 -121 63 -118 61 -178 146 -27 39 -71 98 -97 131 -26
34 -48 64 -48 68 0 3 15 6 33 6 126 0 221 105 202 224 -34 201 -239 428 -611
672 -230 151 -340 290 -390 489 -23 93 -22 272 1 385 37 182 126 414 232 606
84 152 158 274 166 274 15 0 -3 -44 -108 -255 -115 -234 -155 -338 -185 -486
-28 -137 -28 -314 0 -424 21 -85 74 -204 107 -244 l20 -24 6 101 c13 198 78
479 156 674 16 40 82 188 146 328 294 639 388 922 428 1288 2 21 5 20 72 -25
39 -26 102 -75 141 -108 124 -109 210 -145 342 -145 128 0 214 30 382 135 47
29 122 67 166 84 96 37 183 92 238 150 22 22 41 39 43 37 2 -1 16 -50 32 -107z
m628 -2649 c21 -135 108 -271 201 -316 48 -23 143 -29 216 -14 81 17 206 82
299 157 l80 65 101 -4 c88 -3 107 -7 148 -30 93 -55 121 -107 177 -330 45
-180 64 -224 132 -304 147 -173 198 -300 154 -384 -27 -52 -114 -109 -330
-217 -297 -149 -353 -187 -525 -362 -155 -158 -236 -223 -340 -276 -288 -145
-549 -99 -703 124 -52 75 -68 133 -68 240 0 122 24 244 96 491 75 258 84 306
96 495 23 372 61 540 147 653 23 30 88 82 102 82 3 0 11 -31 17 -70z m-3080
25 c37 -18 84 -55 128 -99 63 -64 85 -99 215 -339 176 -324 221 -395 390 -607
268 -338 336 -476 312 -634 -35 -219 -182 -342 -435 -361 -166 -13 -357 32
-587 140 -206 97 -313 123 -668 165 -281 33 -368 65 -413 152 -31 60 -23 187
20 317 36 111 40 188 15 339 -52 311 -5 399 264 494 167 58 198 83 327 253
136 181 192 219 307 212 47 -3 85 -13 125 -32z"/>
<path d="M3418 8255 c-33 -18 -36 -41 -8 -50 25 -8 113 32 107 49 -6 17 -69
18 -99 1z"/>
<path d="M3697 8263 c-14 -13 -6 -22 38 -43 46 -22 85 -20 85 5 0 29 -102 60
-123 38z"/>
<path d="M4195 7967 c-49 -52 -195 -152 -293 -201 -242 -122 -426 -128 -602
-21 -72 44 -186 143 -210 183 -24 39 -50 42 -50 7 0 -33 53 -91 154 -167 143
-108 249 -144 405 -135 113 5 189 30 355 115 200 102 383 263 298 262 -9 0
-35 -19 -57 -43z"/>
</g>
</svg>
